<svg width="592" height="265" viewBox="0 0 592 265" fill="none" xmlns="http://www.w3.org/2000/svg">
<path d="M270.724 62.41C267.304 62.41 264.506 61.4255 262.329 59.4564C260.257 57.3836 259.22 54.7409 259.22 51.5282C259.22 48.4191 260.308 45.88 262.485 43.9109C264.661 41.8382 267.408 40.8018 270.724 40.8018C274.04 40.8018 276.735 41.8382 278.808 43.9109C280.984 45.88 282.072 48.4191 282.072 51.5282C282.072 54.7409 280.984 57.3836 278.808 59.4564C276.735 61.4255 274.04 62.41 270.724 62.41ZM261.241 74.5355H280.051V150.864H261.241V74.5355ZM338.698 72.2036C349.579 72.2036 357.974 75.1055 363.881 80.9091C369.892 86.6091 372.898 95.0036 372.898 106.093V150.864H354.088V109.668C354.088 102.414 352.326 96.9727 348.802 93.3455C345.279 89.7182 340.097 87.9045 333.257 87.9045C325.795 87.9045 320.095 90.0291 316.157 94.2782C312.219 98.5273 310.249 104.59 310.249 112.466V150.864H291.439V74.5355H310.249V84.4845C316.468 76.2973 325.95 72.2036 338.698 72.2036Z" fill="#F5F5F4"/>
<path d="M389.206 89.6145H375.837V74.5355H389.206V66.4518C389.206 57.0209 391.641 50.0773 396.512 45.6209C401.487 41.1645 409.208 38.9364 419.675 38.9364C424.649 38.9364 428.795 39.3509 432.111 40.18V55.8809C429.106 54.9482 425.997 54.4818 422.784 54.4818C413.042 54.4818 408.171 59.0936 408.171 68.3173V74.5355H431.8V89.6145H408.171V150.864H389.206V89.6145ZM437.306 41.1127H456.116V150.864H437.306V41.1127ZM476.987 62.41C473.567 62.41 470.768 61.4255 468.592 59.4564C466.519 57.3836 465.483 54.7409 465.483 51.5282C465.483 48.4191 466.571 45.88 468.747 43.9109C470.924 41.8382 473.67 40.8018 476.987 40.8018C480.303 40.8018 482.997 41.8382 485.07 43.9109C487.247 45.88 488.335 48.4191 488.335 51.5282C488.335 54.7409 487.247 57.3836 485.07 59.4564C482.997 61.4255 480.303 62.41 476.987 62.41ZM467.504 74.5355H486.314V150.864H467.504V74.5355ZM539.364 153.04C528.689 153.04 519.673 151.071 512.315 147.133C504.957 143.091 499.619 137.443 496.303 130.188C494.023 125.006 492.883 119.151 492.883 112.622C492.883 105.989 494.023 100.185 496.303 95.2109C499.619 87.8527 504.957 82.2045 512.315 78.2664C519.673 74.2245 528.689 72.2036 539.364 72.2036C550.038 72.2036 559.055 74.2245 566.413 78.2664C573.875 82.2045 579.212 87.7491 582.425 94.9C584.808 100.289 586 106.196 586 112.622C586 119.151 584.808 125.11 582.425 130.499C579.212 137.65 573.927 143.195 566.568 147.133C559.21 151.071 550.142 153.04 539.364 153.04ZM539.364 137.495C545.375 137.495 550.505 136.406 554.754 134.23C559.107 131.95 562.268 128.737 564.237 124.592C565.584 121.275 566.258 117.285 566.258 112.622C566.258 107.855 565.584 103.916 564.237 100.807C562.371 96.5582 559.262 93.3455 554.909 91.1691C550.557 88.9927 545.375 87.9045 539.364 87.9045C533.457 87.9045 528.327 89.0445 523.974 91.3245C519.725 93.5009 516.616 96.6618 514.647 100.807C513.196 104.227 512.47 108.165 512.47 112.622C512.47 117.078 513.196 121.068 514.647 124.592C516.616 128.737 519.725 131.95 523.974 134.23C528.327 136.406 533.457 137.495 539.364 137.495Z" fill="url(#paint0_linear_139_82)"/>
<rect x="46.6362" y="15.5455" width="171" height="171" rx="49.7455" fill="url(#paint1_linear_139_82)"/>
<g filter="url(#filter0_ddd_139_82)">
<rect x="46.6362" y="15.5455" width="171" height="171" rx="49.7455" fill="white" fill-opacity="0.01" shape-rendering="crispEdges"/>
</g>
<rect x="71.5088" y="40.4182" width="121.255" height="121.255" rx="27.9818" fill="black" fill-opacity="0.55"/>
<defs>
<filter id="filter0_ddd_139_82" x="-0.000134468" y="1.62125e-05" width="264.273" height="264.273" filterUnits="userSpaceOnUse" color-interpolation-filters="sRGB">
<feFlood flood-opacity="0" result="BackgroundImageFix"/>
<feColorMatrix in="SourceAlpha" type="matrix" values="0 0 0 0 0 0 0 0 0 0 0 0 0 0 0 0 0 0 127 0" result="hardAlpha"/>
<feMorphology radius="15.5455" operator="erode" in="SourceAlpha" result="effect1_dropShadow_139_82"/>
<feOffset dy="31.0909"/>
<feGaussianBlur stdDeviation="31.0909"/>
<feComposite in2="hardAlpha" operator="out"/>
<feColorMatrix type="matrix" values="0 0 0 0 0.745098 0 0 0 0 0.94902 0 0 0 0 0.392157 0 0 0 0.5 0"/>
<feBlend mode="normal" in2="BackgroundImageFix" result="effect1_dropShadow_139_82"/>
<feColorMatrix in="SourceAlpha" type="matrix" values="0 0 0 0 0 0 0 0 0 0 0 0 0 0 0 0 0 0 127 0" result="hardAlpha"/>
<feMorphology radius="0.777273" operator="dilate" in="SourceAlpha" result="effect2_dropShadow_139_82"/>
<feOffset/>
<feComposite in2="hardAlpha" operator="out"/>
<feColorMatrix type="matrix" values="0 0 0 0 0.745098 0 0 0 0 0.94902 0 0 0 0 0.392157 0 0 0 0.5 0"/>
<feBlend mode="normal" in2="effect1_dropShadow_139_82" result="effect2_dropShadow_139_82"/>
<feColorMatrix in="SourceAlpha" type="matrix" values="0 0 0 0 0 0 0 0 0 0 0 0 0 0 0 0 0 0 127 0" result="hardAlpha"/>
<feMorphology radius="4.66364" operator="dilate" in="SourceAlpha" result="effect3_dropShadow_139_82"/>
<feOffset/>
<feComposite in2="hardAlpha" operator="out"/>
<feColorMatrix type="matrix" values="0 0 0 0 0.745098 0 0 0 0 0.94902 0 0 0 0 0.392157 0 0 0 0.18 0"/>
<feBlend mode="normal" in2="effect2_dropShadow_139_82" result="effect3_dropShadow_139_82"/>
<feBlend mode="normal" in="SourceGraphic" in2="effect3_dropShadow_139_82" result="shape"/>
</filter>
<linearGradient id="paint0_linear_139_82" x1="215.736" y1="78.8526" x2="471.115" y2="310.886" gradientUnits="userSpaceOnUse">
<stop stop-color="#ECFCCB"/>
<stop offset="0.5" stop-color="#BEF264"/>
<stop offset="1" stop-color="#84CC16"/>
</linearGradient>
<linearGradient id="paint1_linear_139_82" x1="54.7092" y1="8.77148" x2="209.563" y2="193.319" gradientUnits="userSpaceOnUse">
<stop stop-color="#BEF264"/>
<stop offset="0.8" stop-color="#65A30D"/>
</linearGradient>
</defs>
</svg>
